<svg width="48" height="48" viewBox="0 0 48 48" fill="none" xmlns="http://www.w3.org/2000/svg">
<path d="M24 48C10.7452 48 0 37.2548 0 24C0 10.7452 10.7452 0 24 0C37.2548 0 48 10.7452 48 24C48 37.2548 37.2548 48 24 48Z" fill="white"/>
<path fill-rule="evenodd" clip-rule="evenodd" d="M39.1941 16.4307C39.4312 15.6855 39.1941 15.1435 38.144 15.1435H34.6549C33.7742 15.1435 33.3677 15.6177 33.1306 16.1259C33.1306 16.1259 31.3352 20.4618 28.8285 23.2733C28.0155 24.0863 27.6429 24.3573 27.2026 24.3573C26.9654 24.3573 26.6606 24.0863 26.6606 23.3411V16.3968C26.6606 15.5161 26.3896 15.1096 25.6443 15.1096H20.1567C19.6147 15.1096 19.276 15.5161 19.276 15.9226C19.276 16.7695 20.5293 16.9727 20.6648 19.3439V24.4928C20.6648 25.6107 20.4616 25.8139 20.0212 25.8139C18.8356 25.8139 15.9563 21.4441 14.2287 16.4646C13.8899 15.4822 13.5512 15.1096 12.6705 15.1096H9.14752C8.13129 15.1096 7.96191 15.5839 7.96191 16.092C7.96191 17.0066 9.14752 21.6135 13.4834 27.7109C16.3628 31.8774 20.4616 34.1131 24.1539 34.1131C26.3896 34.1131 26.6606 33.605 26.6606 32.7582V29.6079C26.6606 28.5916 26.8638 28.4223 27.5752 28.4223C28.0833 28.4223 28.9979 28.6932 31.0642 30.6918C33.4354 33.063 33.8419 34.147 35.163 34.147H38.6521C39.6683 34.147 40.1426 33.6389 39.8716 32.6565C39.5667 31.6742 38.415 30.2515 36.9245 28.5577C36.1115 27.6093 34.892 26.5592 34.5194 26.051C34.0113 25.3736 34.1468 25.1026 34.5194 24.4928C34.4856 24.4928 38.7537 18.4632 39.1941 16.4307Z" fill="#292929"/>
</svg>
